<svg class="h-6 lg:h-7 w-6 lg:w-7" viewBox="0 0 68 68" xmlns="http://www.w3.org/2000/svg" fill="none"
    stroke="hsl(0 100% 80%)" stroke-width="3" stroke-linecap="round" stroke-linejoin="round">
    <title />
    <g data-name="Layer 1" id="Layer_1">
    <path
        d="M36.37109.07129a1.00325,1.00325,0,0,0-1.13184.2793l-35,41a1.00147,1.00147,0,0,0-.14453,1.0752l8,17A1.00026,1.00026,0,0,0,9,60H44a1.00159,1.00159,0,0,0,.68262-.26855l15-14A1.00271,1.00271,0,0,0,60,45C60,26.72656,46.68848,4.19824,36.37109.07129ZM57.94922,43.09766,41.78992,32.32477l-5.7782-12.5191.90863-17.25848C46.11426,7.52429,57.13757,26.67786,57.94922,43.09766ZM34.02112,19.56482,23.41486,30.17108,4.82141,39.0636,34.846,3.89191ZM24.81152,31.60254l9.88135-9.88135,5.33252,11.55225L42.8783,58H10.67072Zm17.42889,3.42627,15.153,10.102L44.766,56.91681ZM2.32813,42.47357l19.34723-9.253L9.05762,56.77362Z" />
    </g>
</svg>